<svg width="135px" height="20px" viewBox="0 0 135 20" version="1.1" xmlns="http://www.w3.org/2000/svg" xmlns:xlink="http://www.w3.org/1999/xlink">
  <!-- Generator: Sketch 63.1 (92452) - https://sketch.com -->
  <title>Logo</title>
  <desc>Created with Sketch.</desc>
  <g id="Symbols" stroke="none" stroke-width="1" fill="none" fill-rule="evenodd">
    <g id="Navigation-/-Home" transform="translate(-100.000000, -35.000000)">
      <g id="Navigation">
        <g id="Logo" transform="translate(100.000000, 35.000000)">
          <path d="M41.2736318,4.2 C40.8689884,4.53333333 40.6666667,4.93333333 40.6666667,5.46666667 C40.6666667,6 40.936429,6.4 41.408513,6.73333333 C41.880597,7.06666667 43.0270868,7.4 44.7805417,7.86666667 C46.5339967,8.26666667 47.8828082,8.93333333 48.8944168,9.8 C49.8385849,10.6666667 50.3781095,11.9333333 50.3781095,13.5333333 C50.3781095,15.1333333 49.7711443,16.5333333 48.4897734,17.5333333 C47.2084024,18.5333333 45.5898286,19.0666667 43.5666114,19.0666667 C40.5992261,19.0666667 37.9690437,18 35.6086235,15.8666667 L38.1039248,12.8666667 C40.1271421,14.6 41.9480376,15.4666667 43.634052,15.4666667 C44.3758983,15.4666667 44.9828635,15.3333333 45.4549475,15 C45.8595909,14.6666667 46.1293532,14.2666667 46.1293532,13.6666667 C46.1293532,13.1333333 45.9270315,12.6666667 45.4549475,12.3333333 C44.9828635,12 44.106136,11.6666667 42.6898839,11.3333333 C40.5317855,10.8 38.9132117,10.1333333 37.9690437,9.33333333 C36.957435,8.53333333 36.485351,7.26666667 36.485351,5.46666667 C36.485351,3.66666667 37.0923162,2.4 38.3736871,1.4 C39.655058,0.4 41.2061913,0 43.0945274,0 C44.3084577,0 45.5898286,0.2 46.803759,0.6 C48.0176893,1 49.0967385,1.6 50.0409066,2.4 L47.9502488,5.4 C46.331675,4.33333333 44.6456606,3.73333333 42.8922056,3.73333333 C42.2177999,3.73333333 41.6782753,3.86666667 41.2736318,4.2 L41.2736318,4.2 Z M65.68712,15.2666667 C67.7103372,15.2666667 69.3963516,14.4666667 70.6777225,12.8666667 L73.3079049,15.6 C71.2172471,17.9333333 68.7219458,19.1333333 65.8220011,19.1333333 C62.989497,19.1333333 60.6290768,18.2666667 58.7407407,16.4666667 C56.8524046,14.6666667 55.9756772,12.4 55.9756772,9.66666667 C55.9756772,6.93333333 56.9198452,4.66666667 58.8081813,2.86666667 C60.6965174,1.06666667 62.989497,0.133333333 65.7545605,0.133333333 C68.7893864,0.133333333 71.3521282,1.26666667 73.4427861,3.6 L70.8800442,6.46666667 C69.5986733,4.86666667 67.9126589,4.06666667 65.9568823,4.06666667 C64.405749,4.06666667 63.0569375,4.6 61.9778883,5.6 C60.8988391,6.6 60.291874,7.93333333 60.291874,9.66666667 C60.291874,11.4 60.8313986,12.7333333 61.8430072,13.8 C62.8546158,14.8666667 64.2034273,15.2666667 65.68712,15.2666667 L65.68712,15.2666667 Z M93.0005528,18.9333333 L91.2470978,14.9333333 L83.4239912,14.9333333 L81.6705362,18.9333333 L77.2868988,18.9333333 L85.3123273,0.533333333 L89.3587617,0.533333333 L97.3841902,18.9333333 L93.0005528,18.9333333 Z M87.4029851,6 L85.042565,11.3333333 L89.6959646,11.3333333 L87.4029851,6 Z M102.779436,18.9333333 L102.779436,0.533333333 L106.960752,0.533333333 L106.960752,15.2666667 L114.851299,15.2666667 L114.851299,18.9333333 L102.779436,18.9333333 Z M134.543947,0.533333333 L134.543947,4.2 L125.304588,4.2 L125.304588,8 L133.599779,8 L133.599779,11.4666667 L125.304588,11.4666667 L125.304588,15.2666667 L134.88115,15.2666667 L134.88115,18.8666667 L121.190713,18.8666667 L121.190713,0.533333333 L134.543947,0.533333333 Z" id="INSCALE" fill="#023D51"></path>
          <polygon id="Path" fill="#1A97CB" points="24.9530127 0.533333333 29.1343284 0.533333333 29.1343284 18.9333333 24.9530127 18.9333333 16.1182974 7.4 16.1182974 18.9333333 11.9369818 18.9333333 11.9369818 0.533333333 15.8485351 0.533333333 24.9530127 12.4"></polygon>
          <polygon id="Path" fill="#1A97CB" points="-4.17443857e-14 0.533333333 4.11387507 0.533333333 4.11387507 18.9333333 -4.17443857e-14 18.9333333"></polygon>
        </g>
      </g>
    </g>
  </g>
</svg>
